<svg xmlns="http://www.w3.org/2000/svg" viewBox="0 0 395.01 384.76"><defs><style>.cls-1{fill:#fffbf8;}.cls-2{fill:#246082;}.cls-3{opacity:0.25;}.cls-4{fill:#ee2625;}</style></defs><g id="Layer_2" data-name="Layer 2"><g id="Layer_1-2" data-name="Layer 1"><path class="cls-1" d="M189.8,314.37a11,11,0,0,1-6.32-2L78.75,238a10.92,10.92,0,0,1-1.18-16.84L308,3a10.93,10.93,0,0,1,18.28,9.77L288.92,231A10.93,10.93,0,0,1,278.15,240H228.94l-29.11,67.72a10.87,10.87,0,0,1-10,6.61Zm-87.56-86.46,82.86,58.81,26.61-61.91a10.92,10.92,0,0,1,10-6.61h47.2L299.21,41.39Z"/><polygon class="cls-2" points="189.8 303.45 315.5 10.92 85.08 229.12 189.8 303.45"/><g class="cls-3"><polygon points="211.37 253.26 315.5 10.92 85.08 229.12 211.37 253.26"/></g><polygon class="cls-4" points="85.08 229.12 315.5 10.92 278.15 229.12 85.08 229.12"/><path class="cls-1" d="M150.65,196.93c-2.23-1.86-5.26-3.86-9.12-3.86-2.09,0-3.49.61-3.49,2.1,0,2.28,3.35,2.42,7.31,3.62,5.67,1.73,9.3,4.66,9.3,10.24,0,7.44-8.06,11.63-16.48,11.63-8.68,0-16.21-1.5-26.12-8.35l6.94-6.62c4.16,4.8,14.33,6.73,20,6.73,2.71,0,4.08-1,4-2-.12-1.29-2.93-1.84-6.92-3-5.63-1.56-9.74-4.37-9.55-10.48.19-6.61,5.76-11.4,14.18-11.4,5.3,0,11.86,1.77,16,5.67Z"/><path class="cls-1" d="M155.58,219.78l4.28-24.29h10.51l-4.28,24.29Zm4.61-26.38,1.25-6.89H172l-1.25,6.89Z"/><path class="cls-1" d="M180.51,219.78H170l5.86-33.27h10.56Z"/><path class="cls-1" d="M184.47,219.78l4.28-24.29h10.09l-.65,3.63h.1c3.11-3.35,6-4.37,8.46-4.37,3.07,0,5.87,1.11,6.75,4.37h.09c3.21-3.4,6.19-4.37,8.66-4.37,3.86,0,6.93,1.95,6.93,5.72a41.84,41.84,0,0,1-.74,5.63L226,219.78H215.5l2.19-12.28a30.54,30.54,0,0,0,.51-3.59c0-1.25-.56-1.95-1.77-1.95a4.85,4.85,0,0,0-3.07,1.49l-2.84,16.33H200l2.18-12.28a29.19,29.19,0,0,0,.52-3.59c0-1.25-.61-1.95-1.77-1.95a5,5,0,0,0-3.17,1.58L195,219.78Z"/><path class="cls-1" d="M233.43,200.8c2.65-5.08,7.07-6.19,11.95-6.19,4.61,0,12.57,1,12.57,9a28.59,28.59,0,0,1-.65,4.89l-1,5.77c-.37,2.32-.42,3.21-.61,5.49h-9.53a24.55,24.55,0,0,1,.14-2.65h-.1c-2.7,2.14-5,3.35-8.28,3.35-3.86,0-8.05-1.68-8.05-7.12,0-7,7-9,13.73-9,.69,0,2.32,0,4.32.09a9.63,9.63,0,0,0,.24-1.63,2.31,2.31,0,0,0-2.56-2.42c-1.54,0-2.42.89-3.26,2.33Zm12.93,12.37.79-4.33h-.79c-2.6,0-5.72.61-5.72,3.31,0,1.63,1.21,2.37,2.7,2.37A4.12,4.12,0,0,0,246.36,213.17Z"/><path class="cls-1" d="M263.09,195.49h9.31l-.75,4.28h.1c2-3.21,4.65-5,7.63-5a6.22,6.22,0,0,1,1.53.18l-1.67,9.4a7.09,7.09,0,0,0-2.66-.56c-2.74,0-4.46,1.77-5.39,5.4l-1.82,10.61H258.81Z"/><path class="cls-1" d="M17.49,357.21l-2.62,15.18H0l7.62-43.58H28c8.78,0,16.64,3.23,16.64,13,0,8.23-5.36,15.42-16.7,15.42Zm1.77-10h5.91c3.23,0,5.12-1.83,5.12-4.64,0-3-2-3.65-4.63-3.65H20.72Z"/><path class="cls-1" d="M46.74,347.52c3.47-6.64,9.26-8.11,15.66-8.11,6,0,16.46,1.29,16.46,11.83a37.1,37.1,0,0,1-.86,6.4l-1.28,7.55c-.48,3.05-.54,4.21-.79,7.2H63.44c0-1,.06-2.38.18-3.48H63.5C60,371.72,57,373.3,52.65,373.3c-5.06,0-10.54-2.19-10.54-9.32,0-9.21,9.2-11.77,18-11.77.91,0,3,0,5.66.12a11.85,11.85,0,0,0,.31-2.13A3,3,0,0,0,62.71,347c-2,0-3.17,1.16-4.27,3.05Zm16.94,16.21,1-5.67h-1c-3.41,0-7.49.8-7.49,4.33,0,2.13,1.58,3.11,3.53,3.11A5.4,5.4,0,0,0,63.68,363.73Z"/><path class="cls-1" d="M81.29,372.39l5.61-31.82h13.77l-5.6,31.82Zm6-34.56,1.64-9h13.84l-1.65,9Z"/><path class="cls-1" d="M101.16,372.39l5.61-31.82H120l-.85,4.7h.12c4.14-4.33,8.16-5.67,11.46-5.67,5.05,0,9,2.56,9,7.49a53.23,53.23,0,0,1-1,7.38l-3.17,17.92H121.82l2.86-16.09a33.37,33.37,0,0,0,.61-4.7c0-1.64-.67-2.56-2.19-2.56a7.25,7.25,0,0,0-4.51,2.08L115,372.39Z"/><path class="cls-1" d="M167.4,349.23h-6.7l-1.4,8.1a35.62,35.62,0,0,0-.68,4.45c0,2.26,2.2,2.44,3.66,2.44A14,14,0,0,0,165,364l-1.46,8.47a17.32,17.32,0,0,1-6.7,1c-4.82,0-12.19-1-12.19-9.38a42,42,0,0,1,.73-6.58l1.46-8.29h-4.57l1.52-8.72h5.06l3-10.72h12.25l-1.89,10.72H169Z"/><path class="cls-1" d="M167.52,372.39l5.61-31.82H186.9l-5.61,31.82Zm6-34.56,1.65-9H189l-1.64,9Z"/><path class="cls-1" d="M187.39,372.39l5.6-31.82h13.23l-.86,4.7h.13c4.14-4.33,8.16-5.67,11.45-5.67,5.06,0,9,2.56,9,7.49a54.64,54.64,0,0,1-1,7.38l-3.17,17.92H208.05l2.86-16.09a33.37,33.37,0,0,0,.61-4.7c0-1.64-.67-2.56-2.19-2.56a7.23,7.23,0,0,0-4.51,2.08l-3.6,21.27Z"/><path class="cls-1" d="M243.63,359.16c-1.52.06-2.31.73-2.31,1.83s1.09,1.83,3,2.07l7.68.73c7.68.73,12.5,3.23,12.5,9.63,0,9.27-9.39,11.34-19.38,11.34-10.36,0-19.75-2.38-19.75-8.35,0-3.6,3.66-5.24,6.89-5.91v-.13c-2.32-1.28-3.9-3.23-3.9-5.72,0-4.51,4.57-6.95,8.65-7.44v-.12c-3.05-1.59-5.3-4.21-5.3-7.86,0-7.19,8-9.82,15.3-9.82a29.56,29.56,0,0,1,11.09,2.08,10.31,10.31,0,0,1,9.75-6.52,6.08,6.08,0,0,1,2.38.42L268.56,345a6.64,6.64,0,0,0-3.54-.91,3.18,3.18,0,0,0-2.19.73,7.45,7.45,0,0,1,1.83,5.06c0,7.13-7.92,9.75-15.12,9.75A36.21,36.21,0,0,1,243.63,359.16Zm-5.91,13.1a2.33,2.33,0,0,0-1.34,1.95c0,3.78,8.23,4.21,10.91,4.21,3,0,5.42-.67,5.42-2.5,0-1.16-1.15-1.89-3.9-2.19l-4-.37A71.92,71.92,0,0,1,237.72,372.26Zm10.42-18.71c2.56,0,4.39-1.58,4.39-4.14s-1.77-3.72-4-3.72a4.13,4.13,0,0,0-4.45,4.21C244.12,352.33,245.89,353.55,248.14,353.55Z"/><path class="cls-1" d="M281.35,372.39,289,328.81H303.9l-5.85,33h15.6l-1.82,10.61Z"/><path class="cls-1" d="M316.58,372.39l7.67-43.58h14.87l-5.85,33h15.61l-1.83,10.61Z"/><path class="cls-1" d="M392.94,359.77c-1.95,5-7.74,13.77-21.21,13.77-12.19,0-20.11-7.37-20.11-20.05,0-12.37,7.61-25.78,24.31-25.84,10.85-.06,18.83,5.61,19.08,17.49l-14.26.37c-.25-4-1.53-7.74-4.94-7.74-6,0-8.1,11.58-8.1,17.73,0,5.06,1.4,7.93,4.93,7.93,3.23,0,5.43-2.56,7-7.56Z"/></g></g></svg>