<?xml version="1.0" encoding="utf-8"?>
<!-- Generator: Adobe Illustrator 25.1.0, SVG Export Plug-In . SVG Version: 6.00 Build 0)  -->
<svg version="1.1" id="Layer_1" xmlns="http://www.w3.org/2000/svg" xmlns:xlink="http://www.w3.org/1999/xlink" x="0px" y="0px"
	 viewBox="0 0 395.5 388" style="enable-background:new 0 0 395.5 388;" xml:space="preserve">
<style type="text/css">
	.st0{fill:none;stroke:#FFFBF8;stroke-width:21.84;stroke-linejoin:round;}
	.st1{fill:#246082;}
	.st2{opacity:0.25;enable-background:new    ;}
	.st3{fill:#EE2625;}
	.st4{fill:#FFFBF8;}
	.st5{font-family:'FranklinGothicATF-BlackItalic';}
	.st6{font-size:60.94px;}
	.st7{letter-spacing:-1;}
</style>
<g id="Layer_2_1_">
	<g id="Layer_1-2">
		<polygon class="st0" points="315.6,10.9 315.6,10.9 315.6,10.9 315.6,10.9 85.1,229.1 189.9,303.5 221.8,229.1 278.2,229.1 		"/>
		<polygon class="st1" points="189.9,303.5 315.6,10.9 85.1,229.1 		"/>
		<polygon class="st2" points="211.4,253.3 315.6,10.9 85.1,229.1 		"/>
		<polygon class="st3" points="85.1,229.1 315.6,10.9 278.2,229.1 		"/>
		<path class="st4" d="M150.7,196.9c-2.2-1.9-5.3-3.9-9.1-3.9c-2.1,0-3.5,0.6-3.5,2.1c0,2.3,3.4,2.4,7.3,3.6
			c5.7,1.7,9.3,4.7,9.3,10.2c0,7.4-8.1,11.6-16.5,11.6c-8.7,0-16.2-1.5-26.1-8.4l6.9-6.6c4.2,4.8,14.3,6.7,20,6.7c2.7,0,4.1-1,4-2
			c-0.1-1.3-2.9-1.8-6.9-3c-5.6-1.6-9.7-4.4-9.6-10.5c0.2-6.6,5.8-11.4,14.2-11.4c5.3,0,11.9,1.8,16,5.7L150.7,196.9z"/>
		<path class="st4" d="M155.6,219.8l4.3-24.3h10.5l-4.3,24.3H155.6z M160.2,193.4l1.2-6.9h10.6l-1.2,6.9H160.2z"/>
		<path class="st4" d="M180.6,219.8h-10.5l5.9-33.3h10.6L180.6,219.8z"/>
		<path class="st4" d="M184.5,219.8l4.3-24.3h10.1l-0.7,3.6h0.1c3.1-3.4,6.1-4.4,8.5-4.4c3.1,0,5.9,1.1,6.7,4.4h0.1
			c3.2-3.4,6.2-4.4,8.7-4.4c3.9,0,6.9,1.9,6.9,5.7c-0.1,1.9-0.4,3.8-0.7,5.6l-2.4,13.7h-10.5l2.2-12.3c0.2-1.2,0.4-2.4,0.5-3.6
			c0-1.2-0.6-1.9-1.8-1.9c-1.2,0.1-2.3,0.6-3.1,1.5l-2.8,16.3h-10.5l2.2-12.3c0.2-1.2,0.4-2.4,0.5-3.6c0-1.2-0.6-1.9-1.8-1.9
			c-1.2,0.1-2.3,0.7-3.2,1.6l-2.8,16.2L184.5,219.8z"/>
		<path class="st4" d="M233.5,200.8c2.6-5.1,7.1-6.2,12-6.2c4.6,0,12.6,1,12.6,9c-0.1,1.6-0.3,3.3-0.6,4.9l-1,5.8
			c-0.4,2.3-0.4,3.2-0.6,5.5h-9.5c0-0.9,0-1.8,0.1-2.6h-0.1c-2.7,2.1-5,3.4-8.3,3.4c-3.9,0-8.1-1.7-8.1-7.1c0-7,7-9,13.7-9
			c0.7,0,2.3,0,4.3,0.1c0.1-0.5,0.2-1.1,0.2-1.6c0.1-1.3-0.9-2.4-2.2-2.4c-0.1,0-0.3,0-0.4,0c-1.5,0-2.4,0.9-3.3,2.3L233.5,200.8z
			 M246.4,213.2l0.8-4.3h-0.8c-2.6,0-5.7,0.6-5.7,3.3c0,1.6,1.2,2.4,2.7,2.4C244.6,214.5,245.6,214,246.4,213.2L246.4,213.2z"/>
		<path class="st4" d="M263.1,195.5h9.3l-0.8,4.3h0.1c2-3.2,4.6-5,7.6-5c0.5,0,1,0.1,1.5,0.2l-1.7,9.4c-0.8-0.4-1.7-0.5-2.7-0.6
			c-2.7,0-4.5,1.8-5.4,5.4l-1.8,10.6h-10.6L263.1,195.5z"/>
		<text transform="matrix(1 0 0 1 0 372.39)" class="st4 st5 st6 st7">P</text>
		<text transform="matrix(1 0 0 1 42.96 372.39)" class="st4 st5 st6">ai</text>
		<text transform="matrix(1 0 0 1 101.83 372.39)" class="st4 st5 st6">n</text>
		<text transform="matrix(1 0 0 1 141.2885 372.39)" class="st4 st5 st6">t</text>
		<text transform="matrix(1 0 0 1 168.19 372.39)" class="st4 st5 st6">ing L</text>
		<text transform="matrix(1 0 0 1 316.64 372.39)" class="st4 st5 st6 st7">L</text>
		<text transform="matrix(1 0 0 1 349.67 372.39)" class="st4 st5 st6">C</text>
	</g>
</g>
</svg>
